<svg width="1406" height="1446" viewBox="0 0 1406 1446" fill="none" xmlns="http://www.w3.org/2000/svg">
<path d="M1249.77 820.621C1248.03 821.618 1237.29 826.759 1234.31 827.912C1212.42 837.674 1192.77 836.062 1170.87 823.18C1155.14 813.93 1140.54 793.575 1134.82 786.428C1130.31 780.788 1124.85 773.401 1117.01 766.396C1102.46 753.316 1082.79 744.7 1048.73 745.331C1045.99 745.381 1043.29 744.755 1040.87 743.473C1006.46 725.28 947.186 703.096 890.534 705.95C879.306 706.707 877.691 698.543 873.988 689.405C863.684 661.875 856.178 649.126 849.184 639.148C840.282 626.45 836.371 626.351 828.992 624.279C820.775 621.971 811.869 621.1 806.405 611.576C805.736 610.407 803.055 605.368 806.094 601.824C813.616 593.055 834.477 580.985 803.139 563.294C784.032 552.507 792.54 545.57 795.718 543.933C800.114 541.666 807.697 539.877 816.763 541.682C825.832 543.49 836.383 548.894 846.721 561.002C856.943 572.974 891.444 628.834 912.41 671.244C912.691 671.816 913.147 674.869 917.005 675.242C922.852 675.811 932.871 675.827 934.92 676.001C938.151 676.276 938.192 673.672 937.874 672.613C908.149 573.984 873.962 451.233 814.624 365.826C813.419 363.374 814.452 360.809 818.194 361.179C871.294 366.616 886.7 442.179 917.819 491.815C957.795 555.624 981.235 530.618 985.027 487.579C987.677 457.493 979.741 419.202 958.777 397.733C953.79 391.665 944.965 383.982 941.273 379.439C939.947 377.806 939.75 375.059 943.275 374.181C944.73 373.817 946.81 373.671 949.641 373.775C974.181 375.661 1008.27 395.522 1022.6 417.633C1052 463.012 1049.8 487.401 1045.77 503.483C1038.88 530.994 1026.03 546.807 1041.97 590.306C1073.52 676.409 1065.26 658.446 1047.31 712.605C1045.77 716.722 1048.29 719.791 1051.84 719.464C1093.16 715.674 1105.78 725.027 1114.7 729.807C1115.6 730.291 1116.38 731.032 1117.01 730.891C1118.6 730.333 1119.16 728.334 1119.44 725.641C1122.83 702.405 1117.98 692.59 1112.68 678.899C1109.58 670.858 1106.05 661.792 1104.94 652.962C1103.14 641.625 1105.19 635.246 1108.6 626.765C1114.42 612.307 1117.89 601.105 1113.16 579.346C1102.71 533.43 1065.08 457.824 1041.04 414.277C1039.05 410.52 1022.58 379.423 1019.99 374.872C1018.23 371.763 1018.98 367.975 1020.29 365.031C1021.38 362.587 1023.19 357.689 1023.19 357.689C1028.93 343.056 1031.98 331.881 1033.71 319.11C1039.27 277.932 1028.48 248.638 998.692 224.13C971.048 201.386 921.808 191.317 856.242 195.011L842.363 195.798C780.611 199.323 710.622 203.318 657.956 198.964C606.968 194.749 577.191 186.684 566.913 174.305C563.581 170.285 562.289 165.835 562.86 160.291C564.003 149.21 570.713 138.189 581.268 130.055C590.399 123.017 601.195 119.231 608.838 120.428C622.557 120.988 637.603 128.709 655.021 137.65C670.626 145.662 688.315 154.741 708.885 160.653C726.277 165.653 743.493 167.869 760.027 167.238C775.63 166.643 790.913 163.377 805.451 157.527C811.597 155.051 816.016 152.214 817.934 150.538C818.927 149.672 819.298 147.945 818.099 146.33C817.384 145.359 816.482 145.365 813.293 145.363C791.399 145.359 771.902 141.912 759.521 139.01C745.831 135.552 744.654 132.232 744.782 130.964C745.079 128.031 752.296 125.241 760.541 124.872C800.942 123.057 831.878 125.243 852.349 126.683C859.327 127.176 864.839 127.565 868.818 127.646C872.893 127.729 878.254 127.573 878.473 127.548C879.694 127.43 880.048 126.652 880.142 126.324C880.371 125.544 880.015 124.618 879.559 124.257C865.317 112.498 819.043 94.7515 766.258 85.4037C681.329 70.3621 624.435 82.7041 591.667 95.7143C585.141 98.3036 568.347 105.579 553.414 117.151C536.955 129.903 527.77 143.801 526.113 158.45C523.902 178.059 538.13 203.392 618.513 212.709C703.621 222.576 783.132 221.17 853.279 219.941C860.613 219.81 867.805 219.686 874.845 219.575C919.281 218.929 956.889 229.625 973.022 247.608C991.606 268.322 992.712 296.053 988.012 313.503C986.656 318.532 983.897 326.107 980.589 330.901C975.487 337.806 969.889 339.909 959.603 337.193C926.765 328.519 868.187 309.221 839.786 299.638C814.492 291.1 794.514 284.356 777.572 280.203C727.278 267.878 711.573 276.04 677.81 297.376C669.67 302.516 661.396 308.151 651.815 314.672C637.956 324.107 622.245 334.806 601.35 347.848C588.746 355.714 572.226 364.806 554.733 374.428C536.945 384.217 518.553 394.337 500.538 405.131C442.755 439.046 433.534 484.519 422.86 537.173C415.284 574.534 406.697 616.88 378.16 659.762C375.032 664.467 350.295 694.468 345.032 702.983C325.485 734.404 314.982 761.518 319.124 807.111C322.221 841.197 310.557 870.866 299.283 899.561C290.405 922.141 282.025 943.469 280.642 966.312C279.597 980.435 280.105 993.633 280.599 1006.4C281.419 1027.58 281.734 1048.69 275.271 1066.97C270.307 1081.01 257.72 1094.83 252.837 1108.41C246.558 1125.87 242.161 1150.71 242.161 1173.53C241.766 1192.75 227.485 1206.87 212.37 1221.84C199.048 1235.02 185.107 1248.87 180.035 1266.8C179.359 1269.19 178.909 1271 178.027 1272.43C176.711 1274.55 174.74 1275.91 172.097 1277.78C166.986 1281.41 160.807 1286.19 154.055 1299.76C148.357 1311.22 149.994 1331.66 155.207 1341.59C156.01 1343.13 158.256 1346.73 161.711 1347.13C164.051 1347.4 166.403 1346.16 168.727 1343.45C168.727 1343.45 183.49 1326.38 189.243 1321.25C191.261 1319.51 193.664 1319.83 195.037 1320.86C196.658 1322.07 197.028 1324.11 196.026 1326.3C195.44 1327.57 186.541 1343.42 181.342 1356.77L181.22 1357.1C180.513 1359 179.637 1361.35 180.898 1363.31C182.126 1365.21 185.016 1366.25 190.013 1366.58C192.216 1366.66 194.34 1366.7 196.395 1366.7C223.751 1366.7 238.136 1359.44 245.532 1353.04C248.418 1349.96 248.992 1348.62 249.943 1346.41C250.194 1345.83 250.471 1345.18 250.852 1344.35C256.324 1329.68 259.993 1312.72 260.427 1300.06C260.427 1294.7 261.95 1293.17 265.637 1289.48C280.039 1274.95 280.053 1255.77 280.069 1237.2C280.083 1220.14 280.095 1202.5 291.315 1188.59C321.91 1154.36 337.807 1114.34 353.185 1075.65C369.043 1035.73 385.443 994.451 417.994 960.026C426.195 951.603 434.235 947.012 439.54 947.865C442.131 948.259 444.185 949.922 445.656 952.828C452.621 965.711 450.529 983.039 448.5 999.803C446.206 1018.75 444.043 1036.64 454.084 1048.34C460.79 1057.03 462.6 1066.18 459.298 1074.86C455.012 1088.56 441.962 1130.26 410.849 1148.71C410.098 1149.15 401.903 1154.99 399.34 1157.47C398 1158.77 397.022 1160.52 395.891 1162.54C393.166 1167.4 389.777 1173.45 379.084 1176.61C367.374 1179.56 356.355 1186.67 350.337 1195.18C333.881 1218.42 334.588 1247.2 336.134 1255.45C336.735 1258.64 337.814 1262.85 340.877 1267.02C342.745 1269.58 344.914 1271.09 347.149 1271.42C348.987 1271.68 350.823 1271.15 352.56 1269.83C354.372 1268.45 356.511 1265.97 359.219 1262.83C363.469 1257.92 368.756 1251.8 375.42 1246.9C377.555 1245.34 379.658 1245.7 380.907 1246.57C382.078 1247.39 382.615 1248.69 382.275 1249.88C381.655 1252.05 379.67 1255.18 377.147 1259.14C373.952 1264.18 369.973 1270.44 366.835 1277.82C366.056 1279.47 365.958 1280.99 366.538 1282.33C367.44 1284.43 369.682 1285.3 370.354 1285.52C390.157 1291.83 419.737 1284.33 436.292 1268.78C444.593 1260.97 448.63 1250.64 448.63 1237.17C448.63 1233.75 450.257 1228.45 453.794 1224.91C465.456 1214.93 470.287 1199.35 475.399 1182.85C476.614 1178.93 477.871 1174.87 479.229 1170.87C484.51 1155.33 491.469 1141.97 508.279 1127.27C530.094 1106.88 539.95 1087.65 546.171 1075.8C552.504 1063.05 553.89 1055.93 558.517 1048.49C567.62 1034.14 598.349 1031.43 609.702 1038.13C614.41 1040.91 615.456 1044.76 612.819 1049.57C611.098 1052.69 594.889 1078.92 587.262 1096.84C583.518 1105.63 575.052 1108.92 570.014 1111.87C539.581 1129.65 534.031 1163.15 533.145 1176.88C532.87 1181.17 533.342 1186.88 535.501 1190.07C536.75 1191.91 538.502 1193.1 540.426 1193.41C542.328 1193.72 544.277 1193.17 546.058 1191.81C547.836 1190.45 564.312 1173.82 566.284 1172.09C569.01 1169.7 571.404 1170.1 572.62 1171.18C573.913 1172.32 574.455 1174.59 572.762 1177.1C570.466 1180.49 559.09 1197.62 560.421 1201.37C562.681 1207.72 569.155 1207.6 575.64 1207.66C627.853 1203.22 646.312 1166.07 646.312 1166.07C647.577 1163.91 649.146 1161.05 648.317 1153.32C646.824 1139.38 643.532 1091.08 671.463 1061C679.773 1051.78 684.646 1058.01 686.532 1062.13C689.912 1069.52 694.911 1082.32 697.754 1088.75C703.787 1102.37 707.913 1112.43 714.865 1125.92C726.597 1148.68 744.226 1151.83 766.045 1149.09C794.257 1145.54 813.71 1147.81 832.667 1149.68C848.768 1151.02 857.668 1152.1 869.498 1141.28C875.948 1135.39 888.317 1124.59 896.628 1112.84C901.891 1105.41 903.522 1100.71 902.194 1089.14C898.287 1031.08 928.486 980.637 982.923 954.23C991.089 950.926 1000.16 951.938 1005.71 959.385C1017.92 977.5 1046.32 1023.87 1046.32 1063.23C1046.32 1066.95 1044.86 1071.04 1043.16 1075.78C1039.31 1086.53 1034.52 1099.92 1043.42 1118.18C1043.98 1133.98 1038.12 1146.32 1032.96 1157.21C1025.6 1172.72 1019.8 1184.96 1039.91 1197.02C1045.6 1200.43 1052.98 1203.48 1062.47 1206.35C1063.02 1206.52 1063.58 1206.61 1064.1 1206.61C1064.92 1206.61 1065.68 1206.4 1066.29 1206.01C1066.98 1205.55 1067.42 1204.9 1067.5 1204.16C1068.06 1199.61 1068.6 1183.81 1069.45 1180.08C1069.79 1178.6 1070.56 1176.81 1072.27 1176.7C1073.87 1176.61 1075.46 1177.91 1075.91 1179.18C1077.52 1182.97 1081.61 1198.43 1082.74 1200.88C1083.71 1202.99 1084.85 1204.42 1086.4 1204.87C1094.47 1207.2 1105.49 1193.33 1109.61 1186.19C1116.72 1171.48 1113.8 1149.61 1102.21 1130.56C1100.5 1126.9 1100.26 1125.43 1100.24 1122.1C1104.53 1104.76 1101.41 1095.97 1098.1 1086.68C1096.19 1081.31 1094.27 1075.76 1093.4 1068.15C1090.28 1040.84 1107 954.401 1108.57 945.52C1111.41 929.441 1113.76 917.971 1114.79 906.162C1115.77 894.737 1111.09 881.353 1103.14 872.858C1095.86 865.076 1087.07 857.942 1078.58 851.044C1071.09 844.958 1064.01 839.213 1058.23 833.288C1048.87 823.7 1045.89 809.714 1045.97 805.766C1046.01 804.697 1046.2 804.012 1046.58 803.675C1046.87 803.408 1047.35 803.306 1048.04 803.354C1060.93 804.28 1071.24 812.825 1084.31 823.638C1095.99 833.318 1109.25 844.292 1127.81 852.524C1164.48 868.789 1199.29 866.385 1234.25 845.175C1249.12 834.636 1253.71 825.596 1254.45 824.341C1255.38 822.762 1254.03 818.187 1249.77 820.621ZM437.127 675.582C439.254 658.671 451.742 640.651 457.219 619.529C465.024 595.684 467.184 554.015 471.426 520.98C473.541 504.516 479.836 497.549 491.726 496.087C499.578 495.382 507.761 502.212 511.979 525.473C526.607 620.726 555.217 633.903 571.836 659.131C572.137 659.587 572.425 660.061 572.682 660.543C576.938 668.452 578.302 675.817 571.625 681.157C567.707 684.292 554.681 688.975 532.524 675.618C505.941 659.591 501.93 642.33 457.856 677.594C457.856 677.594 451.957 682.175 446.302 683.434C441.516 684.501 436.238 682.643 437.127 675.582ZM667.866 1025.02C666.281 1026.01 664.498 1025.33 661.913 1023.68C644.406 1012.49 595.883 1003.66 554.928 1020.07C512.788 1036.95 474.196 1060.79 471.61 1019.12C471.1 982.194 478.97 966.107 466.125 944.132C466.125 944.132 465.577 943.389 465.01 942.491C463.906 940.744 465.245 940.36 465.665 940.326C524.854 935.699 540.653 917.204 544.343 910.733C545.152 909.311 544.088 907.781 542.581 907.612C528.985 906.108 461.192 904.072 433.932 908.014C385.981 914.947 353.774 987.156 347.545 993.981C340.35 1001.87 331.278 995.83 331.278 988.645C331.278 976.597 338.392 918.116 343.116 897.84C350.596 865.745 360.904 841.898 392.218 837.08C414.163 833.704 468.015 828.002 464.311 813.426C461.236 801.376 459.706 791.948 459.676 786.618C459.635 779.499 463.277 778.075 470.488 779.675C475.818 780.858 482.963 784.024 492.12 786.179C559.869 802.119 594.579 789.422 634.956 771.482C636.096 770.973 651.115 764.221 652.028 763.711C659.305 759.658 668.446 766.979 664.399 775.637C662.256 780.222 659.352 782.343 653.135 788.327C639.802 801.167 590.058 841.938 620.024 910.864C643.39 964.607 650.187 978.519 666.765 1015.17C669.449 1021.11 669.84 1023.79 667.866 1025.02ZM793.815 1118.01C790.511 1123.15 785.422 1126.8 775.521 1126.8C763.351 1126.8 754.739 1123.15 749.575 1117.65C738.979 1106.35 737.66 1090.89 740.255 1080.77C741.896 1074.36 745.746 1070.14 749.874 1068.92C751.686 1068.32 752.662 1068.45 753.56 1069.62C755.398 1072.57 761.976 1082.98 763.492 1085.15C765.268 1087.68 768.483 1089.91 771.107 1090.96C776.054 1092.94 782.369 1094.66 785.707 1096.17C795.924 1100.59 798.279 1111.07 793.815 1118.01ZM989.145 927.965C987.86 930.052 986.711 930.387 984.985 931.174C923.615 954.388 874.831 1017.03 883.681 1092.3C883.856 1096.23 882.631 1101.74 878.927 1105.45C878.927 1105.45 866.048 1118.53 857.939 1124.1C855.169 1126.01 852.048 1127.56 844.805 1127.1C833.455 1126.37 817.468 1125.37 817.468 1125.37C813.178 1124.65 815.014 1120.92 815.339 1120.1C815.645 1119.32 815.944 1118.42 816.177 1117.37C818.501 1106.07 816.842 1090.25 800.966 1084.33C798.684 1083.04 800.116 1080.95 800.392 1080.27C807.207 1063.49 815.731 1042.72 822.57 1013.6C826.702 995.991 824.165 985.371 817.991 972.713C816.625 969.909 814.835 967.318 812.8 964.958L803.145 952.159C800.454 949.038 801.159 945.751 805.041 944.365L818.649 940.897C821.97 939.712 821.65 934.677 818.453 933.869L811.431 931.62C804.786 928.885 800.739 923.581 797.758 919.488C797.268 918.815 796.411 917.457 795.593 915.981C794.101 913.282 793.018 910.374 792.395 907.351L791.578 903.379C791.488 901.356 788.306 901.332 786.914 902.726C776.178 913.505 772.858 930.053 780.742 943.206C791.785 961.63 791.339 959.817 801.177 973.751C804.429 978.354 806.373 982.099 807.448 986.65C808.934 992.936 808.51 1008.87 804.298 1020.25L793.131 1054.16C786.39 1069.33 778.872 1065.68 774.603 1062.84C769.1 1059.18 763.974 1049.7 761.194 1039.65C761.194 1039.65 753.515 1011.34 753.781 973.707C753.27 969.158 750.173 961.725 740.297 968.232L714.027 990.03C710.317 992.005 703.882 990.924 705.185 982.379C705.185 982.379 724.066 898.165 744.399 850.722C759.664 812.026 742.671 790.213 722.413 766.256C689.32 724.029 681.906 667.229 758.967 698.344C779.657 707.803 787.053 695.54 812.576 693.329C830.884 691.747 836.903 699.153 838.468 702.288C839.866 705.09 840.348 708.189 840.511 709.812C840.583 710.517 840.348 710.982 839.577 710.995C796.372 713.451 744.816 749.338 784.634 805.649C823.733 860.816 931.332 879.367 979.385 826.767C980.018 826.062 980.181 824.477 979.215 823.676C978.719 823.262 977.869 822.881 976.748 823.305C966.241 827.287 956.57 830.292 946.865 831.888C923.909 835.664 875.275 832.908 852.285 806.676C839.131 791.669 839.482 774.339 861.717 771.692C874.096 770.698 880.154 772.976 885.515 773.076C899.382 772.889 902.228 759.02 899.372 752.75C896.994 746.743 891.468 739.479 883.699 733.165C876.526 728.065 880.407 722.729 885.071 722.858C929.579 725.392 972.124 733.094 988.173 786.51C988.788 788.51 989.876 795.26 991.575 797.781C995.02 802.89 1001.01 806.726 1007.61 812.482C1023.77 826.564 1038.26 851.672 989.145 927.965ZM1046.96 894.934C1054.77 878.59 1065.39 889.551 1070.45 907.494C1076.88 930.284 1077.8 966.955 1075.09 985.865C1071.55 1010.53 1059.96 1005.59 1053.75 996.821C1043.95 982.965 1033.35 964.523 1025.96 951.866C1025.74 951.482 1025.52 951.091 1025.33 950.687C1021.89 943.572 1021.38 937.934 1024.98 932.648C1028.68 926.969 1043.36 902.447 1046.96 894.934Z" fill="black"/>
</svg>
